<svg width="39" height="39" viewBox="0 0 39 39" fill="none" xmlns="http://www.w3.org/2000/svg">
<path d="M8.65667 12.5C8.94477 12.5426 9.23287 12.572 9.51769 12.6244C10.9025 12.8864 12.0877 13.5314 13.0764 14.5333C13.9734 15.4469 14.5693 16.5307 14.8214 17.788C15.1422 19.3695 14.9196 20.8756 14.1273 22.2836C13.8719 22.7354 13.5544 23.148 13.2532 23.5933C13.263 23.6031 13.2957 23.6424 13.3317 23.6752C14.6413 24.9652 15.9508 26.2553 17.2604 27.5421C17.5452 27.8204 17.5779 28.1184 17.3488 28.3476C17.1229 28.5735 16.8151 28.5473 16.5369 28.2755C15.2208 26.9789 13.9014 25.6823 12.5853 24.3857C12.5493 24.3497 12.51 24.3169 12.4707 24.2809C12.2579 24.425 12.0582 24.5723 11.8487 24.7066C10.6701 25.4498 9.38019 25.7969 7.99207 25.7445C6.16198 25.6757 4.60362 24.9718 3.33009 23.6555C2.37412 22.6634 1.79465 21.4814 1.57857 20.1193C1.54583 19.9326 1.52619 19.7493 1.5 19.5626C1.5 19.2712 1.5 18.9798 1.5 18.6884C1.50982 18.6426 1.52292 18.6 1.52946 18.5542C1.56875 18.2922 1.59167 18.027 1.64732 17.7683C1.90923 16.5307 2.48871 15.4567 3.37265 14.553C4.36463 13.538 5.55632 12.8896 6.95426 12.6244C7.22926 12.572 7.50754 12.5426 7.78254 12.5C8.07392 12.5 8.36529 12.5 8.65667 12.5ZM2.53454 19.0911C2.54764 19.3236 2.54764 19.5168 2.57055 19.7067C2.7146 20.9215 3.17949 21.9954 4.02415 22.8861C5.49411 24.4282 7.30456 25.0078 9.37692 24.6051C11.2005 24.2514 12.5624 23.2004 13.371 21.5141C14.1862 19.8115 14.1371 18.0925 13.2237 16.4488C12.2907 14.7625 10.8141 13.8032 8.90221 13.5674C7.39295 13.3808 6.00484 13.7508 4.78696 14.6709C3.31699 15.7874 2.58365 17.2903 2.53454 19.0911Z" fill="white"/>
</svg>
