<svg width="44" height="46" viewBox="0 0 44 46" fill="none" xmlns="http://www.w3.org/2000/svg">
<path d="M43.9126 23.0572C43.9126 10.5965 34.1419 0.597168 21.9661 0.597168C9.79025 0.597168 0.0195312 10.5965 0.0195312 23.0572C0.0195312 34.2872 7.98642 43.6712 18.5087 45.3633V29.5183H12.9469V23.0572H18.5087V18.1344C18.5087 12.4425 21.8157 9.3658 26.7763 9.3658C29.1814 9.3658 31.7368 9.82731 31.7368 9.82731V15.3654H29.031C26.3253 15.3654 25.4234 17.0576 25.4234 18.9036V23.0572H31.5865L30.6845 29.5183H25.5737V45.2095C35.9457 43.6712 43.9126 34.2872 43.9126 23.0572Z" fill="#262626"/>
<path d="M27.7904 24.9922L28.6923 18.5311H22.5293V14.3775C22.5293 12.5315 23.4312 10.8393 26.1369 10.8393H28.8426V5.30123C28.8426 5.30123 26.2872 4.83972 23.8821 4.83972C18.9216 4.83972 15.6146 7.91643 15.6146 13.6084V18.5311H10.2031V24.9922H15.7649V40.6834C16.8171 40.8373 18.0197 40.9911 19.2222 40.9911C20.4248 40.9911 21.477 40.8373 22.6796 40.6834V24.9922H27.7904Z" fill="white"/>
</svg>
